# xmcd
#
# Track frame offsets: 
#        150
#        27720
#        53767
#        66667
#        90900
#        118122
#        138977
#        183397
#        209332
#        231865
#        256270
#        278970
#        307335
#
# Disc length: 4430 seconds
#
# Revision: 0
# Processed by: cddbd v1.5PL3 Copyright (c) Steve Scherf et al.
# Submitted via: ExactAudioCopy v0.95a4
#
DISCID=c7114c0d
DTITLE=The Vipers Featuring Eagle Park Slim - Good Times Live
DYEAR=2000
DGENRE=Blues
TTITLE0=Chicken And the Hawk
TTITLE1=Let's Work together
TTITLE2=Such A Fool
TTITLE3=Born Under A Bad Sign
TTITLE4=Ups And Downs
TTITLE5=Poison Ivy
TTITLE6=Deep Down In Florida
TTITLE7=Road Runner Blues
TTITLE8=You Ran In
TTITLE9=Viper Band Boogie
TTITLE10=When My Baby Left Me
TTITLE11=Claustrophobia
TTITLE12=Can't Get No Grindin'
EXTD=
EXTT0=
EXTT1=
EXTT2=
EXTT3=
EXTT4=
EXTT5=
EXTT6=
EXTT7=
EXTT8=
EXTT9=
EXTT10=
EXTT11=
EXTT12=
PLAYORDER=
